<svg width="222" height="67" viewBox="0 0 222 67" fill="none" xmlns="http://www.w3.org/2000/svg">
<path fill-rule="evenodd" clip-rule="evenodd" d="M97.5763 20.6309C95.4302 20.6309 92.8833 21.0763 90.1005 24.2343V15.3965C90.1005 13.1639 88.2492 11.3477 85.9735 11.3477C83.6977 11.3477 81.8465 13.1639 81.8465 15.3965V44.2177C81.8465 46.4503 83.6977 48.2665 85.9735 48.2665C88.2492 48.2665 90.1005 46.4503 90.1005 44.2177V33.0316C90.1005 29.8158 91.657 28.0401 94.4928 28.0401C97.2697 28.0401 98.7318 29.7637 98.7318 33.0316V44.2177C98.7318 46.4503 100.583 48.2665 102.859 48.2665C105.135 48.2665 106.986 46.4503 106.986 44.2177V30.6834C106.98 24.3905 103.466 20.6309 97.5763 20.6309ZM121.278 20.8277C117.917 20.8277 115.252 21.2557 112.64 22.2158C111.284 22.7132 110.376 23.9973 110.376 25.4085C110.376 27.2941 111.903 28.769 113.855 28.769C114.256 28.769 114.592 28.7112 115.052 28.5608C116.638 28.0749 118.312 27.8436 120.181 27.8436C124.615 27.8436 125.558 30.2439 125.57 32.274C124.031 31.7824 122.091 31.3313 119.385 31.3313C112.334 31.3313 108.289 34.4951 108.289 40.0187V40.117C108.289 45.1086 112.11 48.4632 117.793 48.4632C120.995 48.4632 123.559 47.5089 125.605 45.5539C125.953 46.9825 127.35 48.2724 129.496 48.2724C131.754 48.2724 133.523 46.5603 133.523 44.374V32.4418C133.523 28.688 132.521 25.7961 130.534 23.8527C128.482 21.8457 125.369 20.8277 121.278 20.8277ZM120.081 42.662C117.74 42.662 116.29 41.5746 116.29 39.8221V39.7237C116.29 37.6357 118.07 36.4443 121.177 36.4443C122.769 36.4443 124.355 36.7508 125.67 37.3061V38.4108C125.67 40.9094 123.371 42.662 120.081 42.662ZM144.583 24.304C146.717 21.8343 149.347 20.6312 152.601 20.6312C158.81 20.6312 165.089 25.3914 165.089 34.4953V34.5936C165.089 38.787 163.774 42.3383 161.292 44.8716C159.022 47.191 155.938 48.4634 152.601 48.4634C149.388 48.4634 146.835 47.3876 144.624 45.0972V52.0379C144.624 54.2705 142.773 56.0866 140.497 56.0866C138.222 56.0866 136.37 54.2705 136.37 52.0379V24.8766C136.37 22.644 138.222 20.8279 140.497 20.8279C142.579 20.8279 144.3 22.3433 144.583 24.304ZM156.84 34.4953C156.84 30.568 154.181 27.6009 150.656 27.6009C147.107 27.6009 144.524 30.4986 144.524 34.4953V34.5936C144.524 38.5903 147.101 41.488 150.656 41.488C154.24 41.488 156.84 38.5903 156.84 34.5936V34.4953ZM183.224 20.6312C179.969 20.6312 177.34 21.8343 175.205 24.304C174.923 22.3433 173.201 20.8279 171.12 20.8279C168.844 20.8279 166.993 22.644 166.993 24.8766V52.0379C166.993 54.2705 168.844 56.0866 171.12 56.0866C173.396 56.0866 175.247 54.2705 175.247 52.0379V45.0972C177.458 47.3876 180.011 48.4634 183.224 48.4634C186.561 48.4634 189.644 47.191 191.914 44.8716C194.396 42.3383 195.711 38.787 195.711 34.5936V34.4953C195.711 25.3914 189.432 20.6312 183.224 20.6312ZM181.278 27.6009C184.804 27.6009 187.463 30.568 187.463 34.4953V34.5936C187.463 38.5903 184.863 41.488 181.278 41.488C177.723 41.488 175.147 38.5903 175.147 34.5936V34.4953C175.147 30.4986 177.729 27.6009 181.278 27.6009ZM214.123 23.8817C214.89 21.8804 216.258 20.8277 218.079 20.8277C220.278 20.8277 222.006 22.4762 222 24.5699C222 25.1773 221.8 26.0564 221.623 26.4613L212.313 48.3939C209.973 53.9522 207.532 55.9245 202.986 55.9245C201.383 55.9245 200.15 55.7163 198.735 55.2189C197.763 54.8719 196.124 53.9696 196.124 51.8295C196.124 49.7242 197.816 48.4691 199.449 48.4691C200.097 48.4691 200.486 48.579 200.799 48.6831C201.442 48.8797 201.795 48.9607 202.285 48.9607C203.523 48.9607 204.042 48.7641 204.667 47.5899L204.855 47.1503L195.799 26.5654C195.593 26.0564 195.375 25.2698 195.375 24.7203C195.375 22.4993 197.126 20.822 199.449 20.822C201.365 20.822 202.662 21.8052 203.405 23.8296L208.858 38.2142L214.123 23.8817Z" fill="white"/>
<path d="M59.1759 17.0022V40.6597C59.1759 50.0494 51.3688 57.662 41.7394 57.662H39.9758L30.9694 66.4382C30.6167 66.7822 30.1288 67 29.5879 67C29.0882 67 28.6356 66.8223 28.2887 66.5242L28.1359 66.3752L28.13 66.3694L19.2001 57.662H17.4306C7.80703 57.662 0 50.0494 0 40.6597V17.0022C0 7.6126 7.80703 0 17.4365 0H41.7394C51.3688 0 59.1759 7.6126 59.1759 17.0022Z" fill="#FFD666"/>
<path d="M13.7779 32.7729C12.0613 32.7729 11.0828 34.6803 12.0788 36.0575C15.9515 41.4224 22.3552 44.9202 29.5908 44.9202C36.8264 44.9202 43.2242 41.4166 47.0969 36.0575C48.0929 34.6803 47.1144 32.7729 45.3978 32.7729H13.7779Z" fill="white"/>
<path d="M23.8317 24.654H13.4733V19.56C13.4733 16.7479 15.7934 14.466 18.6525 14.466C21.5116 14.466 23.8317 16.7479 23.8317 19.56V24.654Z" fill="white"/>
<path d="M45.7087 24.654H35.3504V19.56C35.3504 16.748 37.6704 14.466 40.5295 14.466C43.3886 14.466 45.7087 16.748 45.7087 19.56V24.654Z" fill="white"/>
</svg>
